<svg xmlns="http://www.w3.org/2000/svg" width="900" height="1184" viewBox="0 0 900 1184">
  <defs>
    <style>
      @import url('https://fonts.googleapis.com/css2?family=Inter:wght@400;600;700&amp;display=swap');
      text { font-family: 'Inter', -apple-system, BlinkMacSystemFont, 'Segoe UI', sans-serif; }
    </style>
    <linearGradient id="bg" x1="0" y1="0" x2="0" y2="1">
      <stop offset="0%" stop-color="#0f172a"/>
      <stop offset="100%" stop-color="#1e293b"/>
    </linearGradient>
    <linearGradient id="green-bar" x1="0" y1="0" x2="1" y2="0">
      <stop offset="0%" stop-color="#22c55e"/>
      <stop offset="100%" stop-color="#16a34a"/>
    </linearGradient>
    <linearGradient id="yellow-bar" x1="0" y1="0" x2="1" y2="0">
      <stop offset="0%" stop-color="#eab308"/>
      <stop offset="100%" stop-color="#ca8a04"/>
    </linearGradient>
    <linearGradient id="red-bar" x1="0" y1="0" x2="1" y2="0">
      <stop offset="0%" stop-color="#ef4444"/>
      <stop offset="100%" stop-color="#dc2626"/>
    </linearGradient>
    <linearGradient id="blue-bar" x1="0" y1="0" x2="1" y2="0">
      <stop offset="0%" stop-color="#3b82f6"/>
      <stop offset="100%" stop-color="#2563eb"/>
    </linearGradient>
  </defs>

  <!-- Background -->
  <rect width="900" height="1184" fill="url(#bg)" rx="12"/>

  <!-- Header -->
  <text x="40" y="45" font-size="24" font-weight="700" fill="#f8fafc">AgentForge Eval Results</text>
  <text x="40" y="70" font-size="14" fill="#94a3b8">Clinical Query Agent for OpenEMR — 79 test cases</text>

  <!-- Pass rate badge -->
  <rect x="700" y="20" width="160" height="60" rx="10" fill="#052e16" stroke="#22c55e" stroke-width="1.5"/>
  <text x="780" y="46" font-size="28" font-weight="700" fill="#22c55e" text-anchor="middle">87.3%</text>
  <text x="780" y="66" font-size="12" fill="#86efac" text-anchor="middle">69/79 passed</text>

  <!-- Metrics row -->
  <rect x="40" y="85" width="160" height="30" rx="6" fill="#1e3a5f"/>
  <text x="120" y="105" font-size="12" fill="#93c5fd" text-anchor="middle">232 Unit Tests ✅</text>
  <rect x="210" y="85" width="160" height="30" rx="6" fill="#1e3a5f"/>
  <text x="290" y="105" font-size="12" fill="#93c5fd" text-anchor="middle">10 Tools Covered ✅</text>
  <rect x="380" y="85" width="160" height="30" rx="6" fill="#1e3a5f"/>
  <text x="460" y="105" font-size="12" fill="#93c5fd" text-anchor="middle">79 Eval Cases ✅</text>
  <rect x="550" y="85" width="160" height="30" rx="6" fill="#1e3a5f"/>
  <text x="630" y="105" font-size="12" fill="#93c5fd" text-anchor="middle">Avg 10.3s/query</text>
<text x="40" y="130" font-size="16" font-weight="600" fill="#e2e8f0">Category Breakdown</text>
  <text x="40" y="175" font-size="13" fill="#cbd5e1">Golden Sets</text>
  <rect x="230" y="161" width="350" height="18" rx="4" fill="#334155"/>
  <rect x="230" y="161" width="350" height="18" rx="4" fill="url(#green-bar)"/>
  <text x="590" y="175" font-size="13" fill="#94a3b8">25/25</text>
  <text x="660" y="175" font-size="13" fill="#86efac" font-weight="600">100%</text>
  <text x="40" y="207" font-size="13" fill="#cbd5e1">Edge Cases</text>
  <rect x="230" y="193" width="350" height="18" rx="4" fill="#334155"/>
  <rect x="230" y="193" width="175" height="18" rx="4" fill="url(#red-bar)"/>
  <text x="590" y="207" font-size="13" fill="#94a3b8">2/4</text>
  <text x="660" y="207" font-size="13" fill="#fca5a5" font-weight="600">50%</text>
  <text x="40" y="239" font-size="13" fill="#cbd5e1">Adversarial</text>
  <rect x="230" y="225" width="350" height="18" rx="4" fill="#334155"/>
  <rect x="230" y="225" width="87.5" height="18" rx="4" fill="url(#red-bar)"/>
  <text x="590" y="239" font-size="13" fill="#94a3b8">1/4</text>
  <text x="660" y="239" font-size="13" fill="#fca5a5" font-weight="600">25%</text>
  <text x="40" y="271" font-size="13" fill="#cbd5e1">Safety</text>
  <rect x="230" y="257" width="350" height="18" rx="4" fill="#334155"/>
  <rect x="230" y="257" width="280" height="18" rx="4" fill="url(#yellow-bar)"/>
  <text x="590" y="271" font-size="13" fill="#94a3b8">4/5</text>
  <text x="660" y="271" font-size="13" fill="#fde047" font-weight="600">80%</text>
  <text x="40" y="303" font-size="13" fill="#cbd5e1">Query Variation</text>
  <rect x="230" y="289" width="350" height="18" rx="4" fill="#334155"/>
  <rect x="230" y="289" width="350" height="18" rx="4" fill="url(#green-bar)"/>
  <text x="590" y="303" font-size="13" fill="#94a3b8">8/8</text>
  <text x="660" y="303" font-size="13" fill="#86efac" font-weight="600">100%</text>
  <text x="40" y="335" font-size="13" fill="#cbd5e1">Drug Interactions</text>
  <rect x="230" y="321" width="350" height="18" rx="4" fill="#334155"/>
  <rect x="230" y="321" width="350" height="18" rx="4" fill="url(#green-bar)"/>
  <text x="590" y="335" font-size="13" fill="#94a3b8">5/5</text>
  <text x="660" y="335" font-size="13" fill="#86efac" font-weight="600">100%</text>
  <text x="40" y="367" font-size="13" fill="#cbd5e1">Complex Queries</text>
  <rect x="230" y="353" width="350" height="18" rx="4" fill="#334155"/>
  <rect x="230" y="353" width="350" height="18" rx="4" fill="url(#green-bar)"/>
  <text x="590" y="367" font-size="13" fill="#94a3b8">4/4</text>
  <text x="660" y="367" font-size="13" fill="#86efac" font-weight="600">100%</text>
  <text x="40" y="399" font-size="13" fill="#cbd5e1">Bounty: Encounters</text>
  <rect x="230" y="385" width="350" height="18" rx="4" fill="#334155"/>
  <rect x="230" y="385" width="233.33333333333331" height="18" rx="4" fill="url(#red-bar)"/>
  <text x="590" y="399" font-size="13" fill="#94a3b8">2/3</text>
  <text x="660" y="399" font-size="13" fill="#fca5a5" font-weight="600">67%</text>
  <text x="40" y="431" font-size="13" fill="#cbd5e1">Bounty: Med Rec</text>
  <rect x="230" y="417" width="350" height="18" rx="4" fill="#334155"/>
  <rect x="230" y="417" width="350" height="18" rx="4" fill="url(#green-bar)"/>
  <text x="590" y="431" font-size="13" fill="#94a3b8">2/2</text>
  <text x="660" y="431" font-size="13" fill="#86efac" font-weight="600">100%</text>
  <text x="40" y="463" font-size="13" fill="#cbd5e1">Bounty: Discharge</text>
  <rect x="230" y="449" width="350" height="18" rx="4" fill="#334155"/>
  <rect x="230" y="449" width="350" height="18" rx="4" fill="url(#green-bar)"/>
  <text x="590" y="463" font-size="13" fill="#94a3b8">2/2</text>
  <text x="660" y="463" font-size="13" fill="#86efac" font-weight="600">100%</text>
  <text x="40" y="495" font-size="13" fill="#cbd5e1">Bounty: Workflows</text>
  <rect x="230" y="481" width="350" height="18" rx="4" fill="#334155"/>
  <rect x="230" y="481" width="350" height="18" rx="4" fill="url(#green-bar)"/>
  <text x="590" y="495" font-size="13" fill="#94a3b8">2/2</text>
  <text x="660" y="495" font-size="13" fill="#86efac" font-weight="600">100%</text>
  <text x="40" y="527" font-size="13" fill="#cbd5e1">Bounty: Edge Cases</text>
  <rect x="230" y="513" width="350" height="18" rx="4" fill="#334155"/>
  <rect x="230" y="513" width="4" height="18" rx="4" fill="url(#red-bar)"/>
  <text x="590" y="527" font-size="13" fill="#94a3b8">0/1</text>
  <text x="660" y="527" font-size="13" fill="#fca5a5" font-weight="600">0%</text>
  <text x="40" y="559" font-size="13" fill="#cbd5e1">Bounty: Safety</text>
  <rect x="230" y="545" width="350" height="18" rx="4" fill="#334155"/>
  <rect x="230" y="545" width="350" height="18" rx="4" fill="url(#green-bar)"/>
  <text x="590" y="559" font-size="13" fill="#94a3b8">2/2</text>
  <text x="660" y="559" font-size="13" fill="#86efac" font-weight="600">100%</text>
  <text x="40" y="591" font-size="13" fill="#cbd5e1">Discharge Instr.</text>
  <rect x="230" y="577" width="350" height="18" rx="4" fill="#334155"/>
  <rect x="230" y="577" width="262.5" height="18" rx="4" fill="url(#yellow-bar)"/>
  <text x="590" y="591" font-size="13" fill="#94a3b8">3/4</text>
  <text x="660" y="591" font-size="13" fill="#fde047" font-weight="600">75%</text>
  <text x="40" y="623" font-size="13" fill="#cbd5e1">Appointments</text>
  <rect x="230" y="609" width="350" height="18" rx="4" fill="#334155"/>
  <rect x="230" y="609" width="233.33333333333331" height="18" rx="4" fill="url(#red-bar)"/>
  <text x="590" y="623" font-size="13" fill="#94a3b8">2/3</text>
  <text x="660" y="623" font-size="13" fill="#fca5a5" font-weight="600">67%</text>
  <text x="40" y="655" font-size="13" fill="#cbd5e1">DailyMed</text>
  <rect x="230" y="641" width="350" height="18" rx="4" fill="#334155"/>
  <rect x="230" y="641" width="350" height="18" rx="4" fill="url(#green-bar)"/>
  <text x="590" y="655" font-size="13" fill="#94a3b8">2/2</text>
  <text x="660" y="655" font-size="13" fill="#86efac" font-weight="600">100%</text>
  <text x="40" y="687" font-size="13" fill="#cbd5e1">Workflows</text>
  <rect x="230" y="673" width="350" height="18" rx="4" fill="#334155"/>
  <rect x="230" y="673" width="350" height="18" rx="4" fill="url(#green-bar)"/>
  <text x="590" y="687" font-size="13" fill="#94a3b8">3/3</text>
  <text x="660" y="687" font-size="13" fill="#86efac" font-weight="600">100%</text><text x="40" y="729" font-size="16" font-weight="600" fill="#e2e8f0">Tool Usage (from eval runs)</text>
  <text x="40" y="774" font-size="12" fill="#cbd5e1" font-family="monospace">get_encounter_data</text>
  <rect x="310" y="760" width="270" height="18" rx="4" fill="#334155"/>
  <rect x="310" y="760" width="270" height="18" rx="4" fill="url(#blue-bar)"/>
  <text x="590" y="774" font-size="13" fill="#93c5fd" font-weight="600">21 calls</text>
  <text x="40" y="806" font-size="12" fill="#cbd5e1" font-family="monospace">get_patient_summary</text>
  <rect x="310" y="792" width="270" height="18" rx="4" fill="#334155"/>
  <rect x="310" y="792" width="192.85714285714286" height="18" rx="4" fill="url(#blue-bar)"/>
  <text x="590" y="806" font-size="13" fill="#93c5fd" font-weight="600">15 calls</text>
  <text x="40" y="838" font-size="12" fill="#cbd5e1" font-family="monospace">get_lab_results</text>
  <rect x="310" y="824" width="270" height="18" rx="4" fill="#334155"/>
  <rect x="310" y="824" width="192.85714285714286" height="18" rx="4" fill="url(#blue-bar)"/>
  <text x="590" y="838" font-size="13" fill="#93c5fd" font-weight="600">15 calls</text>
  <text x="40" y="870" font-size="12" fill="#cbd5e1" font-family="monospace">get_medications</text>
  <rect x="310" y="856" width="270" height="18" rx="4" fill="#334155"/>
  <rect x="310" y="856" width="167.14285714285714" height="18" rx="4" fill="url(#blue-bar)"/>
  <text x="590" y="870" font-size="13" fill="#93c5fd" font-weight="600">13 calls</text>
  <text x="40" y="902" font-size="12" fill="#cbd5e1" font-family="monospace">drug_interaction_check</text>
  <rect x="310" y="888" width="270" height="18" rx="4" fill="#334155"/>
  <rect x="310" y="888" width="128.57142857142856" height="18" rx="4" fill="url(#blue-bar)"/>
  <text x="590" y="902" font-size="13" fill="#93c5fd" font-weight="600">10 calls</text>
  <text x="40" y="934" font-size="12" fill="#cbd5e1" font-family="monospace">generate_discharge_instructions</text>
  <rect x="310" y="920" width="270" height="18" rx="4" fill="#334155"/>
  <rect x="310" y="920" width="102.85714285714285" height="18" rx="4" fill="url(#blue-bar)"/>
  <text x="590" y="934" font-size="13" fill="#93c5fd" font-weight="600">8 calls</text>
  <text x="40" y="966" font-size="12" fill="#cbd5e1" font-family="monospace">allergy_check</text>
  <rect x="310" y="952" width="270" height="18" rx="4" fill="#334155"/>
  <rect x="310" y="952" width="64.28571428571428" height="18" rx="4" fill="url(#blue-bar)"/>
  <text x="590" y="966" font-size="13" fill="#93c5fd" font-weight="600">5 calls</text>
  <text x="40" y="998" font-size="12" fill="#cbd5e1" font-family="monospace">reconcile_medications</text>
  <rect x="310" y="984" width="270" height="18" rx="4" fill="#334155"/>
  <rect x="310" y="984" width="64.28571428571428" height="18" rx="4" fill="url(#blue-bar)"/>
  <text x="590" y="998" font-size="13" fill="#93c5fd" font-weight="600">5 calls</text>
  <text x="40" y="1030" font-size="12" fill="#cbd5e1" font-family="monospace">save_to_chart</text>
  <rect x="310" y="1016" width="270" height="18" rx="4" fill="#334155"/>
  <rect x="310" y="1016" width="64.28571428571428" height="18" rx="4" fill="url(#blue-bar)"/>
  <text x="590" y="1030" font-size="13" fill="#93c5fd" font-weight="600">5 calls</text>
  <text x="40" y="1062" font-size="12" fill="#cbd5e1" font-family="monospace">draft_discharge_summary</text>
  <rect x="310" y="1048" width="270" height="18" rx="4" fill="#334155"/>
  <rect x="310" y="1048" width="51.42857142857142" height="18" rx="4" fill="url(#blue-bar)"/>
  <text x="590" y="1062" font-size="13" fill="#93c5fd" font-weight="600">4 calls</text>
  <line x1="40" y1="1094" x2="860" y2="1094" stroke="#334155" stroke-width="1"/>
  <text x="40" y="1119" font-size="12" fill="#64748b">Generated 2026-02-27 • LangChain.js + Claude Sonnet 4 • Vitest + Custom Eval Harness</text>
  <text x="40" y="1139" font-size="12" fill="#64748b">OpenEMR Clinical Query Agent — Built for Gauntlet AI Week 2 Bounty</text>
</svg>